<svg xmlns="http://www.w3.org/2000/svg" width="1024" height="1024" viewBox="0 0 1024 1024" role="img" aria-label="Ledgerail brand mark">
  <defs>
    <linearGradient id="railBlue" x1="0" x2="1" y1="0" y2="0">
      <stop offset="0%" stop-color="#2B78E4"/>
      <stop offset="100%" stop-color="#1F64D1"/>
    </linearGradient>
    <linearGradient id="navyGrad" x1="0" x2="1" y1="0" y2="1">
      <stop offset="0%" stop-color="#15355F"/>
      <stop offset="100%" stop-color="#0E2748"/>
    </linearGradient>
    <linearGradient id="greenGrad" x1="0" x2="1" y1="0" y2="1">
      <stop offset="0%" stop-color="#33D29A"/>
      <stop offset="100%" stop-color="#18B67F"/>
    </linearGradient>
  </defs>
  <rect width="1024" height="1024" fill="none"/>
  <!-- rails -->
  <path d="M190 320v280c0 84 68 152 152 152h418" fill="none" stroke="url(#railBlue)" stroke-width="34" stroke-linecap="round" stroke-linejoin="round"/>
  <path d="M250 320v240c0 55 45 100 100 100h410" fill="none" stroke="url(#railBlue)" stroke-width="28" stroke-linecap="round" stroke-linejoin="round" opacity="0.92"/>
  <path d="M415 660h365" fill="none" stroke="url(#railBlue)" stroke-width="34" stroke-linecap="round"/>
  <circle cx="430" cy="660" r="27" fill="#fff" stroke="url(#railBlue)" stroke-width="20"/>
  <circle cx="655" cy="660" r="27" fill="#fff" stroke="url(#railBlue)" stroke-width="20"/>
  <!-- document -->
  <path d="M430 170h215l117 117v337c0 30-24 54-54 54H430c-30 0-54-24-54-54V224c0-30 24-54 54-54z" fill="none" stroke="url(#navyGrad)" stroke-width="34" stroke-linejoin="round"/>
  <path d="M645 170v106c0 22 18 40 40 40h77" fill="none" stroke="url(#navyGrad)" stroke-width="34" stroke-linecap="round" stroke-linejoin="round"/>
  <path d="M470 366h158M470 460h206M470 554h178" fill="none" stroke="url(#navyGrad)" stroke-width="28" stroke-linecap="round"/>
  <!-- verification badge -->
  <circle cx="730" cy="530" r="92" fill="url(#greenGrad)" stroke="#fff" stroke-width="16"/>
  <path d="M690 531l28 28 51-56" fill="none" stroke="#fff" stroke-width="22" stroke-linecap="round" stroke-linejoin="round"/>
</svg>
